<?xml version="1.0" encoding="UTF-8"?> <svg xmlns="http://www.w3.org/2000/svg" width="30" height="30" viewBox="0 0 30 30" fill="none"> <path d="M0.0949578 3.02992C0.27963 2.91982 0.397307 3.14236 0.496925 3.25945C6.90685 11.2784 13.3243 19.2915 19.7337 27.3105C19.8653 27.4247 19.7657 27.6688 19.588 27.6426C16.5191 27.6461 13.4496 27.6437 10.3807 27.6437C10.1348 27.6466 9.89947 27.5243 9.74858 27.3326C6.5643 23.3543 3.38177 19.3743 0.197488 15.3954C0.062334 15.2346 -0.00757305 15.0266 0.00116537 14.8175C0.00116537 10.9737 0.00233025 7.12941 0 3.28567C0.00174768 3.19479 -0.0017474 3.07711 0.0949578 3.02992Z" fill="#FF4655"></path> <path d="M29.7402 3.0113C29.8712 2.96178 30.0157 3.08295 29.9965 3.22044C30.0011 7.06593 29.9959 10.9114 29.9988 14.7569C30.0076 14.9748 29.9598 15.2002 29.8182 15.3715C28.8506 16.5821 27.8818 17.792 26.9142 19.002C26.7528 19.2118 26.4889 19.3277 26.225 19.3143C23.1764 19.3114 20.1273 19.316 17.0788 19.312C16.8988 19.3399 16.7962 19.097 16.929 18.9799C21.1567 13.6908 25.3878 8.40349 29.6178 3.11558C29.6499 3.07014 29.6906 3.03518 29.7402 3.0113Z" fill="#FF4655"></path> </svg> 